<?xml version="1.0" standalone="no"?>
<!DOCTYPE svg PUBLIC "-//W3C//DTD SVG 20010904//EN"
 "http://www.w3.org/TR/2001/REC-SVG-20010904/DTD/svg10.dtd">
<svg version="1.0" xmlns="http://www.w3.org/2000/svg"
 width="300.000000pt" height="300.000000pt" viewBox="0 0 300.000000 300.000000"
 preserveAspectRatio="xMidYMid meet">
<metadata>
Created by potrace 1.10, written by Peter Selinger 2001-2011
</metadata>
<g transform="translate(0.000000,300.000000) scale(0.100000,-0.100000)"
fill="#000000" stroke="none">
<path d="M884 2077 c-3 -8 -4 -34 -1 -58 3 -44 4 -43 5 9 l2 52 80 0 80 0 0
-480 0 -480 43 2 42 1 -37 4 -38 4 -2 477 -3 477 -83 3 c-64 2 -84 0 -88 -11z"/>
<path d="M1235 2077 c-3 -7 -4 -131 -2 -277 l2 -265 3 272 2 272 53 4 52 3
-53 2 c-35 1 -54 -2 -57 -11z"/>
<path d="M1933 2083 c31 -2 83 -2 115 0 31 2 5 3 -58 3 -63 0 -89 -1 -57 -3z"/>
<path d="M1666 1450 c45 -54 64 -73 64 -64 0 6 -19 28 -42 49 -24 22 -33 29
-22 15z"/>
<path d="M1778 1323 c22 -27 50 -57 63 -68 13 -11 -3 10 -35 48 -32 37 -61 67
-63 67 -3 0 13 -21 35 -47z"/>
<path d="M1654 1177 c27 -31 51 -57 53 -57 7 0 -76 98 -90 107 -7 4 10 -19 37
-50z"/>
<path d="M1208 1123 c39 -2 105 -2 145 0 39 1 7 3 -73 3 -80 0 -112 -2 -72 -3z"/>
<path d="M1445 1119 c11 -7 25 -20 31 -28 7 -9 22 -27 34 -41 12 -14 6 -2 -13
25 -20 28 -44 51 -54 53 -16 2 -16 1 2 -9z"/>
<path d="M2008 1063 c22 -27 53 -59 68 -73 16 -14 0 8 -35 48 -70 80 -96 100
-33 25z"/>
<path d="M882 1023 l-2 -73 128 2 127 2 -122 3 -122 4 -4 67 -3 67 -2 -72z"/>
<path d="M1844 963 c18 -22 26 -23 145 -22 94 1 116 3 86 10 -22 4 -77 5 -123
2 -71 -5 -85 -3 -105 13 l-22 19 19 -22z"/>
</g>
</svg>
